# xmcd
#
# Track frame offsets:
#	150
#	10785
#	21490
#	29575
#	38135
#	49617
#	62325
#	75887
#	85672
#	97312
#	110197
#	121900
#
# Disc length: 1802 seconds
#
# Revision: 1
# Processed by: cddbd v1.4PL0 Copyright (c) Steve Scherf et al.
# Submitted via: audiograbber 1.81.00
#
DISCID=9007080c
DTITLE=Carl Smith - Best Of
DYEAR=1900
DGENRE=Country
TTITLE0=The Way I Lose My Mind
TTITLE1=Roly Poly
TTITLE2=If You Don't Somebody Else Will
TTITLE3=A Way With Words
TTITLE4=Show Me A Brick Wall
TTITLE5=This Kinda Love Ain't Meant For Sunday School
TTITLE6=Loose Talk
TTITLE7=This Lady Loving Me
TTITLE8=Lost Highway
TTITLE9=Silver Tongued Cowboy
TTITLE10=There Stands The Glass
TTITLE11=Drinking Champagne
EXTD=
EXTT0=
EXTT1=
EXTT2=
EXTT3=
EXTT4=
EXTT5=
EXTT6=
EXTT7=
EXTT8=
EXTT9=
EXTT10=
EXTT11=
PLAYORDER=
